# xmcd
#
# Track frame offsets:
#	182
#	14590
#	30325
#	47172
#	67085
#	86937
#	104570
#	131110
#	148822
#	173070
#	176257
#	202247
#
# Disc length: 2787 seconds
#
# Revision: 1
# Processed by: cddbd v1.5.2PL0 Copyright (c) Steve Scherf et al.
# Submitted via: audiograbber 1.83.01
#
DISCID=b50ae10c
DTITLE=Rod and the Shotgun Blues - Mr.Alligator
DYEAR=1900
DGENRE=
TTITLE0=Les Cowboys Et Les Indiens
TTITLE1=Help Me
TTITLE2=Mr. Alligator
TTITLE3=Frisco Boogie
TTITLE4=Avec Cette Fille
TTITLE5=Fallin' in Love
TTITLE6=Funky Laurie
TTITLE7=Quelque part ailleurs
TTITLE8=Vapeurs Mauves
TTITLE9=Sound Like This
TTITLE10=Blues In The Swamp
TTITLE11=Tribal Chant
EXTD=
EXTT0=
EXTT1=
EXTT2=
EXTT3=
EXTT4=
EXTT5=
EXTT6=
EXTT7=
EXTT8=
EXTT9=
EXTT10=
EXTT11=
PLAYORDER=
